<?xml version="1.0" standalone="no"?>
<!DOCTYPE svg PUBLIC "-//W3C//DTD SVG 20010904//EN"
 "http://www.w3.org/TR/2001/REC-SVG-20010904/DTD/svg10.dtd">
<svg version="1.0" xmlns="http://www.w3.org/2000/svg"
 width="260.000000pt" height="260.000000pt" viewBox="0 0 260.000000 260.000000"
 preserveAspectRatio="xMidYMid meet">

<g transform="translate(0.000000,260.000000) scale(0.100000,-0.100000)"
fill="#000000" stroke="none">
<path d="M1105 2586 c-296 -49 -542 -179 -748 -396 -172 -180 -279 -387 -334
-643 -25 -114 -25 -380 0 -494 58 -272 167 -474 362 -669 192 -193 395 -303
668 -361 114 -25 380 -25 494 0 271 58 476 169 669 361 192 193 303 398 361
669 25 114 25 380 0 494 -58 273 -168 476 -361 668 -194 193 -392 301 -661
361 -97 21 -349 27 -450 10z m306 -46 c264 -27 486 -119 687 -286 386 -321
541 -848 390 -1324 -34 -106 -101 -247 -158 -330 -44 -64 -167 -210 -178 -210
-4 0 -15 51 -25 113 -21 128 -66 272 -105 335 -37 58 -92 93 -246 153 -124 48
-196 88 -196 110 0 5 16 33 35 62 32 48 72 145 109 262 8 25 14 103 14 207 2
200 -11 248 -84 324 -78 80 -290 159 -419 156 -117 -3 -261 -105 -321 -229
-27 -54 -29 -67 -29 -178 -1 -66 -5 -136 -9 -156 -9 -40 7 -138 29 -179 8 -14
24 -56 35 -93 12 -37 37 -90 55 -117 l33 -49 -19 -26 c-22 -27 -126 -79 -228
-114 -135 -46 -178 -81 -227 -185 -38 -81 -68 -189 -86 -312 -7 -46 -15 -84
-19 -84 -11 0 -135 146 -179 210 -50 73 -117 208 -147 295 -195 571 42 1193
569 1491 142 81 314 136 478 153 121 12 127 12 241 1z m-60 -509 c168 -43 255
-97 302 -185 21 -41 26 -107 19 -261 -2 -27 -3 -70 -3 -95 0 -25 -8 -63 -19
-85 -10 -22 -22 -53 -26 -70 -12 -55 -77 -167 -126 -217 -57 -59 -136 -98
-199 -98 -124 0 -268 147 -310 316 -7 27 -19 59 -27 71 -17 28 -28 138 -14
147 6 4 8 48 5 124 -5 106 -4 122 17 169 41 97 183 203 271 203 20 0 69 -9
110 -19z m-166 -1048 c91 -46 193 -34 287 33 l47 33 52 -34 c29 -19 112 -57
185 -86 73 -28 149 -65 170 -82 64 -53 121 -213 146 -414 14 -106 14 -104 -72
-163 -121 -82 -317 -165 -450 -190 -229 -44 -442 -29 -655 43 -97 33 -238 106
-312 161 -73 53 -73 55 -48 202 33 192 80 312 140 361 21 18 78 46 129 63 108
38 215 92 246 125 l23 24 36 -28 c20 -16 54 -37 76 -48z"/>
</g>
</svg>
